<?xml version="1.0" encoding="iso-8859-1"?>
<!-- Generator: Adobe Illustrator 16.0.0, SVG Export Plug-In . SVG Version: 6.00 Build 0)  -->
<!DOCTYPE svg PUBLIC "-//W3C//DTD SVG 1.1//EN" "http://www.w3.org/Graphics/SVG/1.1/DTD/svg11.dtd">
<svg version="1.1" id="Capa_1" xmlns="http://www.w3.org/2000/svg" xmlns:xlink="http://www.w3.org/1999/xlink" x="0px" y="0px"
	 width="450.228px" height="450.229px" viewBox="0 0 450.228 450.229" style="enable-background:new 0 0 450.228 450.229;"
	 xml:space="preserve">
<g>
	<path d="M438.206,270.618c17.951-48.805,10.574-133.799,10.249-137.396c-0.029-0.29-0.064-0.58-0.118-0.866
		c-8.08-43.027-35.914-49.08-56.223-53.498c-7.536-1.641-14.665-3.189-18.879-6.307c-31.818-31.096-69.522-33.029-84.146-32.447
		c-16.059-23.2-31.066-27.618-54.042-27.618c-12.513,0-28.383,2.01-39.623,10.078c-9.637-11.978-24.32-19.213-39.906-19.213
		c-28.207,0-51.158,22.952-51.158,51.158v70.628c-6.62-14.369-16.231-24.43-28.221-28.889c-17.959-6.688-38.03,0.6-55.062,19.966
		C-17.411,160.025,8.36,227.652,9.48,230.52c0.266,0.668,0.612,1.312,1.022,1.909c45.395,64.734,69.283,101.074,81.711,120.911
		c-5.926,3.848-9.854,10.485-9.854,18.062v53.906c0,11.904,9.646,21.568,21.565,21.568h309.054c11.91,0,21.562-9.664,21.562-21.568
		v-53.906c0-11.904-9.658-21.562-21.562-21.562h-5.516c1.998-22.827,6.414-30.505,13.146-42.149
		C425.462,299.303,431.497,288.865,438.206,270.618z M111.382,349.84c-11.621-18.961-35.778-56.188-85.331-126.88
		c-2.772-7.779-20.439-61.629,8.674-94.759c11.948-13.595,24.399-18.923,35.092-14.934c12.652,4.696,26.3,24.338,26.669,65.344
		c0.035,3.934,2.609,7.409,6.366,8.582c3.742,1.156,7.847-0.204,10.128-3.419c0.972-1.38,9.543-14.283,9.543-42.041V54.515
		c0-18.193,14.807-33,33-33c11.688,0,22.605,6.271,28.513,16.367c1.496,2.557,4.043,4.061,6.762,4.389
		c3.904,2.459,9.085,1.641,11.978-2.081c4.643-5.97,16.71-9.54,32.276-9.54c19.865,0,28.193,3.068,40.571,21.923
		c1.389,3.992,5.455,6.596,9.8,5.996c1.702-0.204,42.422-5.308,75.475,27.316c0.236,0.237,0.49,0.456,0.75,0.659
		c7.46,5.896,17.195,8.009,26.61,10.061c19.429,4.217,36.216,7.873,42.15,38.665c0.544,6.54,6.69,85.721-9.251,129.082
		c-6.164,16.78-11.531,26.072-16.266,34.259c-7.613,13.157-13.323,23.117-15.623,51.234H111.382V349.84z"/>
</g>
<g>
</g>
<g>
</g>
<g>
</g>
<g>
</g>
<g>
</g>
<g>
</g>
<g>
</g>
<g>
</g>
<g>
</g>
<g>
</g>
<g>
</g>
<g>
</g>
<g>
</g>
<g>
</g>
<g>
</g>
</svg>
