<?xml version="1.0" encoding="iso-8859-1"?>
<!-- Generator: Adobe Illustrator 19.0.0, SVG Export Plug-In . SVG Version: 6.00 Build 0)  -->
<svg version="1.1" id="Capa_1" xmlns="http://www.w3.org/2000/svg" xmlns:xlink="http://www.w3.org/1999/xlink" x="0px" y="0px"
	 viewBox="0 0 216.708 216.708" style="enable-background:new 0 0 216.708 216.708;" xml:space="preserve">
<g>
	<path style="fill:#C99E6B;" d="M194.666,0.509c-15.67-7.182-59.98,63.971-62.363,62.779c-1.852-0.926-19.238-2.531-23.949-2.531
		c-4.711,0-22.097,1.604-23.949,2.531C82.021,64.48,37.711-6.673,22.041,0.509C2.97,9.251,23.612,94.678,22.42,99.446
		c-1.178,4.711-19.72,85.284,85.889,85.284c106.225,0,87.157-80.573,85.979-85.284C193.095,94.678,213.738,9.251,194.666,0.509z"/>
	<path style="fill:#FCDBDB;" d="M34.821,92.052c5.236,0.357,24.968-24.21,32.914-26.595C75.682,63.074,39.21,10.084,25.7,7.302
		C12.191,4.521,29.584,91.695,34.821,92.052z"/>
	<path style="fill:#EBEBEC;" d="M194.863,131.972c-10.036,11.834-29.652,33.074-41.466,33.433
		c-16.391,0.497-27.416-24.834-28.608-16.787c-1.192,8.046-3.885,16.787-3.885,16.787H95.802c0,0-2.69-8.741-3.883-16.787
		c-1.192-8.047-12.218,17.284-28.608,16.787c-11.813-0.358-31.431-21.599-41.466-33.434c3.072,35.256,18.369,63.652,85.524,63.652
		C174.522,195.623,191.789,167.228,194.863,131.972z"/>
	<path style="fill:#EBEBEC;" d="M82.95,207.028c0,0,8.967,9.68,25.358,9.68c16.392,0,25.642-9.68,25.642-9.68v-13.954l-32.75-5.866
		L82.95,207.028z"/>
	<path style="fill:#F9B9B9;" d="M89.399,198.831c0,0,10.728,5.96,19.669,5.96c8.94,0,18.773-5.96,18.773-5.96l-14.308-7.039
		l-3.916-7.061l-4.127,2.478L89.399,198.831z"/>
	<path style="fill:#EBEBEC;" d="M108.62,179.121c0,15.413-12.496,27.907-27.907,27.907c-15.414,0-27.909-12.495-27.909-27.907"/>
	<path style="fill:#EBEBEC;" d="M164.28,179.121c0,15.413-12.494,27.907-27.907,27.907c-15.413,0-27.909-12.495-27.909-27.907"/>
	<g>
		<path style="fill:#4C4845;" d="M120.886,128.15c0,0,6.969-19.783,16.827-24.066c9.072-3.941,20.041,0.736,21.832,6.289
			C161.759,117.248,156.8,144.418,120.886,128.15z"/>
		<circle style="fill:#9B9F62;" cx="143.193" cy="117.553" r="14.54"/>
		<path style="fill:#4C4845;" d="M143.297,108.919c0,0,5.876,4.303,5.575,8.491c-0.301,4.187-5.574,8.984-5.574,8.984
			s-5.273-4.714-5.573-8.984C137.422,113.139,143.297,108.919,143.297,108.919z"/>
		<circle style="fill:#FFFFFF;" cx="142.157" cy="113.744" r="1.718"/>
		<path style="fill:none;stroke:#B78D5E;stroke-width:2;stroke-linecap:round;stroke-miterlimit:10;" d="M159.991,108.919
			c0,0-7.12-9.461-21.008-5.285c-10.327,3.105-17.472,19.665-17.794,24.284c-0.323,4.618,0.619,7.438,3.544,10.955"/>
	</g>
	<path style="fill:#DDD7D7;" d="M136.293,201.81c-13.657,0-25.01-9.788-27.474-22.728h-0.511c0,15.455,12.526,27.984,27.984,27.984
		c15.454,0,27.987-12.529,27.987-27.984h-0.511C161.309,192.022,149.948,201.81,136.293,201.81z"/>
	<path style="fill:#DDD7D7;" d="M80.711,201.81c-13.657,0-25.01-9.788-27.474-22.728h-0.511c0,15.455,12.526,27.984,27.984,27.984
		c15.454,0,27.987-12.529,27.987-27.984h-0.511C105.727,192.022,94.366,201.81,80.711,201.81z"/>
	<path style="fill:#F9B9B9;" d="M113.021,156.849h-9.331c-12.561,0-8.5,11.29-4.739,11.29c5.39,0,6.535,2.604,8.511,3.243v21.693
		h1.787v-21.691c1.976-0.639,3.12-3.245,8.509-3.245C121.516,168.139,125.579,156.849,113.021,156.849z"/>
	<g>
		<path style="fill:#4C4845;" d="M95.734,128.15c0,0-6.969-19.783-16.828-24.066c-9.072-3.941-20.041,0.736-21.832,6.289
			C54.86,117.248,59.819,144.418,95.734,128.15z"/>
		<circle style="fill:#9B9F62;" cx="73.425" cy="117.553" r="14.54"/>
		<path style="fill:#4C4845;" d="M73.322,108.919c0,0-5.877,4.303-5.576,8.491c0.303,4.187,5.574,8.984,5.574,8.984
			s5.272-4.714,5.573-8.984C79.196,113.139,73.322,108.919,73.322,108.919z"/>
		<circle style="fill:#FFFFFF;" cx="74.462" cy="113.744" r="1.718"/>
		<path style="fill:none;stroke:#B78D5E;stroke-width:2;stroke-linecap:round;stroke-miterlimit:10;" d="M56.627,108.919
			c0,0,7.12-9.461,21.009-5.285c10.327,3.105,17.472,19.665,17.794,24.284c0.322,4.618-0.62,7.438-3.545,10.955"/>
	</g>
	<path style="fill:#FCDBDB;" d="M180.71,92.052c-5.236,0.357-24.968-24.21-32.914-26.595c-7.946-2.384,28.525-55.374,42.035-58.155
		C203.341,4.521,185.947,91.695,180.71,92.052z"/>
	<path style="opacity:0.2;fill:#FFFFFF;" d="M108.354,60.758c-4.711,0-22.097,1.604-23.949,2.531
		C82.021,64.48,37.711-6.673,22.041,0.509C2.97,9.251,23.612,94.678,22.42,99.446c-0.479,1.913-3.816,16.324-0.552,32.773
		c2.009,22.613,9.1,42.376,31.749,53.594c2.999,12.18,13.989,21.215,27.096,21.215c0.787,0,1.563-0.041,2.334-0.105l-0.097,0.105
		c0,0,8.967,9.68,25.358,9.68c0.134,0,0.257-0.013,0.39-0.014v-21.079v-7.063v-3.826v-19.321V60.761
		C108.579,60.76,108.46,60.758,108.354,60.758z"/>
</g>
<g>
</g>
<g>
</g>
<g>
</g>
<g>
</g>
<g>
</g>
<g>
</g>
<g>
</g>
<g>
</g>
<g>
</g>
<g>
</g>
<g>
</g>
<g>
</g>
<g>
</g>
<g>
</g>
<g>
</g>
</svg>
