<?xml version="1.0" encoding="iso-8859-1"?>
<!-- Generator: Adobe Illustrator 18.1.1, SVG Export Plug-In . SVG Version: 6.00 Build 0)  -->
<svg version="1.1" id="Capa_1" xmlns="http://www.w3.org/2000/svg" xmlns:xlink="http://www.w3.org/1999/xlink" x="0px" y="0px"
	 viewBox="0 0 52.018 52.018" style="enable-background:new 0 0 52.018 52.018;" xml:space="preserve">
<g>
	<g>
		<path style="fill:#030104;" d="M30.304,4.428c0.189-0.312,0.306-0.674,0.306-1.064V2.061C30.61,0.925,29.685,0,28.55,0h-6.039
			c-1.136,0-2.061,0.925-2.061,2.061v1.303c0,0.463,0.16,0.887,0.419,1.231C10.103,6.955,2.018,16.562,2.018,28.027
			c0,13.229,10.762,23.991,23.991,23.991S50,41.256,50,28.027C50,16.265,41.49,6.46,30.304,4.428z M22.513,2l6.097,0.061v1.303
			c0,0.033-0.027,0.061-0.06,0.061l-6.1-0.061L22.513,2z M26.009,50.018c-12.126,0-21.991-9.865-21.991-21.991
			S13.883,6.036,26.009,6.036C38.134,6.036,48,15.901,48,28.027S38.135,50.018,26.009,50.018z"/>
		<path style="fill:#030104;" d="M26.009,8.697c-10.659,0-19.33,8.671-19.33,19.33c0,10.658,8.671,19.33,19.33,19.33
			s19.331-8.672,19.331-19.33C45.34,17.368,36.668,8.697,26.009,8.697z M26.009,45.357c-9.556,0-17.33-7.773-17.33-17.33
			c0-9.556,7.774-17.33,17.33-17.33s17.331,7.774,17.331,17.33C43.34,37.584,35.565,45.357,26.009,45.357z"/>
		<path style="fill:#030104;" d="M15.933,23.597c-0.925,0-2.099,0.463-2.825,1.516c-0.271,0.405-0.495,0.925-0.615,1.572
			l-0.462,2.499c-0.16,0.854-0.115,1.491,0.067,1.942c0.409,1.099,1.522,1.33,2.194,1.33c0.67,0,1.87-0.231,2.686-1.33
			c0.35-0.451,0.63-1.09,0.788-1.942l0.463-2.499c0.12-0.647,0.088-1.167-0.032-1.572C17.859,24.06,16.858,23.597,15.933,23.597z
			 M17.337,26.882l-0.403,2.174c-0.049,0.267-0.238,1.226-0.64,1.712c-0.508,0.624-1.152,0.913-1.857,0.913
			c-0.707,0-1.244-0.289-1.52-0.913c-0.223-0.486-0.057-1.445-0.007-1.712l0.402-2.174c0.014-0.07,0.201-1.088,0.672-1.631
			c0.494-0.602,1.262-0.879,1.805-0.879c0.544,0,1.21,0.277,1.481,0.879C17.539,25.794,17.351,26.813,17.337,26.882z"/>
		<path style="fill:#030104;" d="M24.089,23.748h-3.553c-0.387,0-0.731,0.173-0.771,0.387c-0.039,0.215,0.24,0.388,0.627,0.388
			h2.673c0.386,0,0.53,0.264,0.325,0.589l-4.217,6.604c-0.207,0.326-0.174,0.59,0.075,0.59s0.618-0.264,0.825-0.59l4.196-6.604
			c0.207-0.325,0.407-0.762,0.447-0.977C24.755,23.921,24.475,23.748,24.089,23.748z"/>
		<path style="fill:#030104;" d="M25.807,30.847c-0.236,0-0.485,0.31-0.557,0.688l-0.015,0.084c-0.07,0.381,0.064,0.688,0.3,0.688
			c0.238,0,0.486-0.307,0.557-0.688l0.018-0.084C26.177,31.157,26.043,30.847,25.807,30.847z"/>
		<path style="fill:#030104;" d="M26.713,25.968c-0.238,0-0.486,0.309-0.557,0.687l-0.016,0.084
			c-0.069,0.378,0.064,0.687,0.301,0.687s0.486-0.309,0.556-0.687l0.017-0.084C27.082,26.277,26.947,25.968,26.713,25.968z"/>
		<path style="fill:#030104;" d="M31.95,23.597c-0.925,0-2.099,0.463-2.825,1.516c-0.27,0.405-0.494,0.925-0.615,1.572l-0.461,2.499
			c-0.16,0.854-0.115,1.491,0.066,1.942c0.409,1.099,1.521,1.33,2.193,1.33c0.671,0,1.871-0.231,2.687-1.33
			c0.349-0.451,0.63-1.09,0.788-1.942l0.463-2.499c0.12-0.647,0.09-1.167-0.031-1.572C33.877,24.06,32.875,23.597,31.95,23.597z
			 M33.353,26.882l-0.403,2.174c-0.049,0.267-0.237,1.226-0.64,1.712c-0.508,0.624-1.152,0.913-1.857,0.913
			c-0.707,0-1.242-0.289-1.52-0.913c-0.223-0.486-0.057-1.445-0.006-1.712l0.399-2.174c0.017-0.07,0.201-1.088,0.675-1.631
			c0.491-0.602,1.262-0.879,1.805-0.879s1.209,0.277,1.479,0.879C33.554,25.794,33.367,26.813,33.353,26.882z"/>
		<path style="fill:#030104;" d="M40.621,25.113c-0.337-1.053-1.338-1.516-2.264-1.516s-2.098,0.463-2.824,1.516
			c-0.271,0.405-0.496,0.925-0.615,1.572l-0.463,2.499c-0.16,0.854-0.115,1.491,0.068,1.942c0.408,1.099,1.521,1.33,2.193,1.33
			c0.668,0,1.869-0.231,2.686-1.33c0.35-0.451,0.629-1.09,0.787-1.942l0.464-2.499C40.773,26.038,40.742,25.518,40.621,25.113z
			 M39.76,26.882l-0.398,2.174c-0.053,0.267-0.239,1.226-0.643,1.712c-0.51,0.624-1.15,0.913-1.856,0.913s-1.243-0.289-1.521-0.913
			c-0.223-0.486-0.057-1.445-0.006-1.712l0.401-2.174c0.013-0.07,0.198-1.088,0.672-1.631c0.493-0.602,1.263-0.879,1.806-0.879
			s1.209,0.277,1.479,0.879C39.961,25.794,39.773,26.813,39.76,26.882z"/>
	</g>
</g>
<g>
</g>
<g>
</g>
<g>
</g>
<g>
</g>
<g>
</g>
<g>
</g>
<g>
</g>
<g>
</g>
<g>
</g>
<g>
</g>
<g>
</g>
<g>
</g>
<g>
</g>
<g>
</g>
<g>
</g>
</svg>
