<?xml version="1.0" encoding="iso-8859-1"?>
<!-- Generator: Adobe Illustrator 18.0.0, SVG Export Plug-In . SVG Version: 6.00 Build 0)  -->
<!DOCTYPE svg PUBLIC "-//W3C//DTD SVG 1.1//EN" "http://www.w3.org/Graphics/SVG/1.1/DTD/svg11.dtd">
<svg version="1.1" id="Capa_1" xmlns="http://www.w3.org/2000/svg" xmlns:xlink="http://www.w3.org/1999/xlink" x="0px" y="0px"
	 viewBox="0 0 421.428 421.428" style="enable-background:new 0 0 421.428 421.428;" xml:space="preserve">
<path d="M350.478,147.921c-1.126-1.126-2.652-1.759-4.245-1.759c-17.407,0-31.568-14.161-31.568-31.568V6c0-3.314-2.686-6-6-6
	h-32.081c-1.603,0-3.138,0.653-4.265,1.792c-1.127,1.139-1.752,2.693-1.734,4.295c0.014,1.314,0.044,48.676,0.059,73.533
	c0,11.462-8.993,20.105-20.918,20.105h-77.279c-11.709,0-21.601-9.668-21.601-21.111V6c0-3.314-2.687-6-6-6h-32.081
	c-3.313,0-6,2.686-6,6v108.594c0,17.407-14.161,31.568-31.568,31.568c-1.593,0-3.119,0.633-4.245,1.759
	c-1.125,1.127-1.757,2.654-1.755,4.247l0.266,263.266c0.003,3.311,2.688,5.994,6,5.994h270.507c3.311,0,5.997-2.683,6-5.994
	l0.265-263.266C352.234,150.576,351.603,149.048,350.478,147.921z M81.299,254.723h113.008l-15.17,48.601H81.348L81.299,254.723z
	 M245.154,254.723h94.975l-0.049,48.601H230.154L245.154,254.723z M340.142,242.723h-91.284l15-48.602h76.333L340.142,242.723z
	 M163.641,210.771h44.385l-9.974,31.952H81.287l-0.05-48.602h76.403v10.649C157.641,208.085,160.327,210.771,163.641,210.771z
	 M81.36,315.324h94.031l-7.063,22.625c-0.568,1.822-0.236,3.805,0.894,5.342c1.131,1.538,2.926,2.445,4.834,2.445h38.58
	c2.632,0,4.957-1.715,5.733-4.23l8.08-26.182h113.618l-0.049,48.602H81.409L81.36,315.324z M302.664,12v48.919h-20.032
	c-0.012-16.935-0.025-38.521-0.038-48.919H302.664z M172.445,111.726h77.279c18.459,0,32.918-14.103,32.918-32.109
	c-0.001-1.826-0.003-4.103-0.004-6.698h20.025v41.675c0,2.358,0.199,4.669,0.562,6.926H118.202c0.362-2.257,0.562-4.568,0.562-6.926
	V72.919h20.081v5.696C138.845,96.872,153.918,111.726,172.445,111.726z M138.845,12v48.919h-20.081V12H138.845z M114.431,133.517
	c0.024,0,0.047,0.003,0.071,0.003h192.497c6.223,12.848,18.569,22.2,33.227,24.229l-0.024,24.372h-72.641l3.293-10.671
	c0.562-1.82,0.226-3.799-0.905-5.332c-1.131-1.533-2.923-2.438-4.828-2.438h-101.48c-3.313,0-6,2.686-6,6v12.44H81.226
	l-0.024-24.372C95.86,155.72,108.208,146.367,114.431,133.517z M81.455,409.428l-0.034-33.502h258.586l-0.033,33.502H81.455z"/>
<g>
</g>
<g>
</g>
<g>
</g>
<g>
</g>
<g>
</g>
<g>
</g>
<g>
</g>
<g>
</g>
<g>
</g>
<g>
</g>
<g>
</g>
<g>
</g>
<g>
</g>
<g>
</g>
<g>
</g>
</svg>
