<?xml version="1.0" encoding="iso-8859-1"?>
<!-- Generator: Adobe Illustrator 19.0.0, SVG Export Plug-In . SVG Version: 6.00 Build 0)  -->
<svg version="1.1" id="Layer_1" xmlns="http://www.w3.org/2000/svg" xmlns:xlink="http://www.w3.org/1999/xlink" x="0px" y="0px"
	 viewBox="0 0 511.998 511.998" style="enable-background:new 0 0 511.998 511.998;" xml:space="preserve">
<path style="fill:#E54728;" d="M419.61,501.531c-14.282-52.587-69.591-294.758,76.514-441.985c3.027-3.049,3.167-7.911,0.333-11.141
	c-8.913-10.156-23.103-28.029-30.058-36.865c-2.402-3.052-6.617-3.992-10.088-2.248l-81.535,40.961
	c0,0-130.905-101.196-281.209-16.385V16.26c0-4.925-4.325-8.73-9.21-8.104l-63.721,8.169c-4.219,0.541-7.317,4.229-7.122,8.479
	l7.757,168.803c0.201,4.357,3.788,7.789,8.15,7.796l53.723,0.075c4.61,0.007,8.278-3.795,8.178-8.404
	c-0.367-16.714,5.743-51.014,65.775-33.398c24.501,7.191,44.008,10.665,59.239,12.05c16.619,1.511,28.15,0.534,35.525-0.82
	c0.462-0.085,0.906-0.172,1.334-0.258c1.591-0.323,2.506,1.728,1.195,2.685c-4.307,3.148-10.123,7.674-16.915,13.653
	c-43.849,38.591-128.406,137.704-110.485,317.491c0.416,4.168,3.894,7.361,8.083,7.386c50.137,0.287,230.488,0.033,276.667-0.038
	C417.115,511.82,421.02,506.718,419.61,501.531z"/>
<path style="fill:#F95428;" d="M222.61,493.874c-35.437,0-61.668-0.031-78.392-0.092c-5.764-70.669,4.42-134.953,30.334-191.302
	c22.967-49.939,53.406-82.969,74.898-101.884c5.319-4.682,10.582-8.931,15.637-12.627c6.877-5.025,9.724-13.839,7.083-21.929
	c-2.646-8.105-10.138-13.55-18.645-13.55c-1.316,0-2.642,0.134-3.939,0.396c-0.328,0.067-0.661,0.131-1.007,0.195
	c-4.639,0.852-10.127,1.284-16.308,1.284c-4.46,0-9.269-0.231-14.296-0.689c-16.307-1.482-35.072-5.315-55.776-11.392
	c-12.734-3.737-24.323-5.632-34.443-5.632c-23.086,0-35.94,9.777-42.661,17.98c-7.377,9.005-10.404,19.564-11.45,28.706
	l-34.705-0.049L32.042,33.139l43.398-5.563v37.336l27.035-15.254c37.077-20.923,76.206-31.531,116.299-31.531
	c83.826,0,144.316,46.004,144.917,46.47l9.028,6.977l84.474-42.439c5.721,7.209,13.14,16.449,19.691,24.256
	c-35.267,37.627-61.316,83.46-77.534,136.491c-14.264,46.637-20.966,98.873-19.918,155.256
	c1.198,64.458,12.147,119.032,19.42,148.585C361.05,493.776,285.005,493.874,222.61,493.874z"/>
<g>
</g>
<g>
</g>
<g>
</g>
<g>
</g>
<g>
</g>
<g>
</g>
<g>
</g>
<g>
</g>
<g>
</g>
<g>
</g>
<g>
</g>
<g>
</g>
<g>
</g>
<g>
</g>
<g>
</g>
</svg>
