<?xml version="1.0" encoding="iso-8859-1"?>
<!-- Generator: Adobe Illustrator 18.0.0, SVG Export Plug-In . SVG Version: 6.00 Build 0)  -->
<!DOCTYPE svg PUBLIC "-//W3C//DTD SVG 1.1//EN" "http://www.w3.org/Graphics/SVG/1.1/DTD/svg11.dtd">
<svg version="1.1" id="Capa_1" xmlns="http://www.w3.org/2000/svg" xmlns:xlink="http://www.w3.org/1999/xlink" x="0px" y="0px"
	 viewBox="0 0 489.5 489.5" style="enable-background:new 0 0 489.5 489.5;" xml:space="preserve">
<g>
	<path d="M459.942,53.326L329.928,0.338c-0.006-0.003-0.012-0.005-0.017-0.007l-0.04-0.017c-0.217-0.088-0.439-0.151-0.664-0.202
		c-0.058-0.013-0.115-0.024-0.173-0.035c-0.247-0.045-0.496-0.074-0.745-0.075c-0.008,0-0.015-0.002-0.022-0.002h-166.06
		c-0.141,0-0.274,0.028-0.412,0.042c-0.723-0.097-1.468-0.012-2.163,0.273l-24.497,9.983c-0.509,0.107-0.977,0.302-1.398,0.57
		L29.56,53.326C15.993,53.785,5.098,64.965,5.098,78.642v147.746c0,0.006-0.002,0.013-0.002,0.019c0,0.006,0.002,0.013,0.002,0.019
		v28.515c0,2.347,1.903,4.25,4.25,4.25h73.371c0.672,0,1.299-0.17,1.864-0.448v214.278c0,9.086,7.393,16.478,16.479,16.478h287.377
		c9.086,0,16.479-7.392,16.479-16.478V259.191h75.235c2.347,0,4.25-1.903,4.25-4.25V78.642
		C484.404,64.965,473.509,53.785,459.942,53.326z M322.18,23.438H167.322c-1.069-4.83-1.691-9.824-1.833-14.938h158.523
		C323.871,13.614,323.249,18.608,322.18,23.438z M319.788,31.938c-10.689,31.182-40.277,53.667-75.037,53.667
		c-34.76,0-64.348-22.485-75.037-53.667H319.788z M244.751,94.105c46.992,0,85.482-37.106,87.715-83.554l16.505,6.726
		c-5.518,52.775-50.875,93.801-104.221,93.801c-53.522,0-98.694-40.951-104.219-93.801l16.503-6.726
		C159.269,57,197.759,94.105,244.751,94.105z M13.598,230.657h15.956v20.034H13.598V230.657z M57.069,230.657v20.034H38.054v-20.034
		H57.069z M82.719,250.691h-17.15v-20.034h19.015v20.482C84.019,250.861,83.392,250.691,82.719,250.691z M396.418,473.022
		c0,4.399-3.58,7.978-7.979,7.978h-7.408c0.278-0.565,0.448-1.192,0.448-1.864V352.772c0-2.347-1.903-4.25-4.25-4.25
		s-4.25,1.903-4.25,4.25v126.364c0,0.672,0.17,1.299,0.448,1.864H101.063c-4.399,0-7.979-3.579-7.979-7.978V187.682
		c0-2.347-1.903-4.25-4.25-4.25s-4.25,1.903-4.25,4.25v34.475H13.598V78.642c0-9.28,7.55-16.831,16.831-16.831
		c0.55,0,1.095-0.107,1.604-0.314l100.327-40.889c3.307,26.205,15.642,50.361,35.129,68.539
		c21.038,19.624,48.477,30.432,77.262,30.432c28.601,0,55.91-10.687,76.896-30.091c19.679-18.196,32.167-42.503,35.496-68.878
		l100.326,40.888c0.509,0.208,1.054,0.314,1.604,0.314c9.281,0,16.831,7.55,16.831,16.831v143.515h-70.985v-34.475
		c0-2.347-1.903-4.25-4.25-4.25c-2.347,0-4.25,1.903-4.25,4.25V473.022z M450.429,230.657v20.034h-19.015v-20.034H450.429z
		 M404.918,230.657h17.996v20.034h-17.996V230.657z M458.929,250.691v-20.034h16.975v20.034H458.929z"/>
	<path d="M318.619,178.337H183.083c-2.347,0-4.25,1.903-4.25,4.25v44.839c0,2.347,1.903,4.25,4.25,4.25h79.706L187.98,377.325
		c-0.677,1.318-0.619,2.893,0.153,4.157c0.772,1.264,2.146,2.035,3.627,2.035h48.869c1.593,0,3.053-0.891,3.78-2.308l77.99-151.841
		c0.309-0.601,0.47-1.267,0.47-1.942v-44.839C322.869,180.24,320.966,178.337,318.619,178.337z M314.369,226.398l-76.335,148.619
		h-39.313l74.809-145.649c0.677-1.318,0.619-2.893-0.153-4.157c-0.772-1.264-2.146-2.035-3.627-2.035h-82.417v-36.339h127.036
		V226.398z"/>
	<path d="M377.229,294.511c-2.347,0-4.25,1.903-4.25,4.25v33.629c0,2.347,1.903,4.25,4.25,4.25s4.25-1.903,4.25-4.25v-33.629
		C381.479,296.414,379.577,294.511,377.229,294.511z"/>
</g>
<g>
</g>
<g>
</g>
<g>
</g>
<g>
</g>
<g>
</g>
<g>
</g>
<g>
</g>
<g>
</g>
<g>
</g>
<g>
</g>
<g>
</g>
<g>
</g>
<g>
</g>
<g>
</g>
<g>
</g>
</svg>
