<?xml version="1.0" encoding="iso-8859-1"?>
<!-- Generator: Adobe Illustrator 18.0.0, SVG Export Plug-In . SVG Version: 6.00 Build 0)  -->
<!DOCTYPE svg PUBLIC "-//W3C//DTD SVG 1.1//EN" "http://www.w3.org/Graphics/SVG/1.1/DTD/svg11.dtd">
<svg version="1.1" id="Capa_1" xmlns="http://www.w3.org/2000/svg" xmlns:xlink="http://www.w3.org/1999/xlink" x="0px" y="0px"
	 viewBox="0 0 305.139 305.139" style="enable-background:new 0 0 305.139 305.139;" xml:space="preserve">
<path d="M258.644,150.129c0-21.263-17.051-38.607-38.196-39.109c3.013-5.543,4.725-11.89,4.725-18.629
	c0-21.579-17.554-39.135-39.131-39.135c-10.898,0-20.767,4.481-27.869,11.693C154.37,28.512,123.475,0.006,86.043,0h-0.001
	c-3.313,0-5.999,2.686-6,5.999c-0.001,3.313,2.685,6,5.999,6.001c30.466,0.004,55.735,22.635,59.911,51.962
	c-7.015-6.629-16.465-10.706-26.854-10.706c-21.577,0-39.131,17.556-39.131,39.135c0,6.739,1.713,13.086,4.725,18.629
	c-21.146,0.502-38.196,17.847-38.196,39.109c0,21.263,17.049,38.607,38.194,39.111c-3.011,5.542-4.723,11.889-4.723,18.627
	c0,21.229,16.993,38.552,38.089,39.107c-3.148,5.636-4.951,12.121-4.951,19.023c0,21.582,17.554,39.141,39.131,39.141
	c21.58,0,39.137-17.559,39.137-39.141c0-6.895-1.799-13.375-4.943-19.007c21.398-0.21,38.743-17.676,38.743-39.124
	c0-6.738-1.712-13.085-4.723-18.627C241.595,188.736,258.644,171.392,258.644,150.129z M179.706,150.129
	c0,14.962-12.174,27.135-27.137,27.135s-27.137-12.173-27.137-27.135c0-14.962,12.174-27.134,27.137-27.134
	S179.706,135.167,179.706,150.129z M186.041,65.256c14.96,0,27.131,12.173,27.131,27.135s-12.171,27.134-27.131,27.134
	c-14.963,0-27.137-12.172-27.137-27.134S171.078,65.256,186.041,65.256z M119.098,65.256c14.963,0,27.137,12.173,27.137,27.135
	s-12.174,27.134-27.137,27.134c-14.96,0-27.131-12.172-27.131-27.134S104.138,65.256,119.098,65.256z M58.495,150.129
	c0-14.962,12.174-27.134,27.137-27.134c14.96,0,27.131,12.172,27.131,27.134c0,14.962-12.171,27.135-27.131,27.135
	C70.669,177.264,58.495,165.091,58.495,150.129z M91.967,207.867c0-14.966,12.171-27.141,27.131-27.141
	c14.963,0,27.137,12.175,27.137,27.141c0,14.962-12.174,27.134-27.137,27.134C104.138,235.001,91.967,222.829,91.967,207.867z
	 M152.235,293.139c-14.96,0-27.131-12.175-27.131-27.141c0-14.962,12.171-27.134,27.131-27.134
	c14.963,0,27.137,12.172,27.137,27.134C179.372,280.964,167.198,293.139,152.235,293.139z M186.041,235.001
	c-14.963,0-27.137-12.172-27.137-27.134c0-14.966,12.174-27.141,27.137-27.141c14.96,0,27.131,12.175,27.131,27.141
	C213.172,222.829,201.001,235.001,186.041,235.001z M219.507,177.264c-14.96,0-27.131-12.173-27.131-27.135
	c0-14.962,12.171-27.134,27.131-27.134c14.963,0,27.137,12.172,27.137,27.134C246.644,165.091,234.47,177.264,219.507,177.264z"/>
<g>
</g>
<g>
</g>
<g>
</g>
<g>
</g>
<g>
</g>
<g>
</g>
<g>
</g>
<g>
</g>
<g>
</g>
<g>
</g>
<g>
</g>
<g>
</g>
<g>
</g>
<g>
</g>
<g>
</g>
</svg>
