<?xml version="1.0" encoding="iso-8859-1"?>
<!-- Generator: Adobe Illustrator 18.0.0, SVG Export Plug-In . SVG Version: 6.00 Build 0)  -->
<!DOCTYPE svg PUBLIC "-//W3C//DTD SVG 1.1//EN" "http://www.w3.org/Graphics/SVG/1.1/DTD/svg11.dtd">
<svg version="1.1" id="Capa_1" xmlns="http://www.w3.org/2000/svg" xmlns:xlink="http://www.w3.org/1999/xlink" x="0px" y="0px"
	 viewBox="0 0 217.31 217.31" style="enable-background:new 0 0 217.31 217.31;" xml:space="preserve">
<path d="M196.83,123.008c27.874-27.875,27.191-72.228-1.554-100.975C181.067,7.825,162.611,0,143.31,0
	c-18.396,0-35.802,7.273-49.009,20.48C78.061,36.721,75.365,58.435,77.26,77.305c-3.316-0.335-6.712-0.532-10.146-0.532
	c-19.041,0-35.167,6.061-46.634,17.528c-27.875,27.875-27.192,72.229,1.554,100.975C36.243,209.484,54.698,217.31,74,217.31
	c18.396,0,35.802-7.273,49.009-20.48c16.24-16.24,18.936-37.955,17.04-56.825c3.316,0.335,6.712,0.532,10.146,0.532
	C169.236,140.537,185.362,134.476,196.83,123.008z M91.189,165.009c-6.033,6.034-12.677,7.3-17.188,7.3
	c-7.282,0-14.436-3.144-20.146-8.854c-11.267-11.267-11.921-26.968-1.554-37.334c2.885-2.885,7.869-4.348,14.813-4.348
	c8.357,0,17.484,2.232,24.116,4.357C95.446,139.343,98.312,157.886,91.189,165.009z M126.055,91.172
	c-4.161-13.056-7.054-31.752,0.066-38.872c6.033-6.034,12.678-7.3,17.188-7.3c7.282,0,14.437,3.144,20.146,8.854
	c11.267,11.267,11.92,26.969,1.554,37.335c-2.885,2.885-7.869,4.348-14.814,4.348C141.827,95.537,132.688,93.299,126.055,91.172z"/>
<g>
</g>
<g>
</g>
<g>
</g>
<g>
</g>
<g>
</g>
<g>
</g>
<g>
</g>
<g>
</g>
<g>
</g>
<g>
</g>
<g>
</g>
<g>
</g>
<g>
</g>
<g>
</g>
<g>
</g>
</svg>
