<?xml version='1.0' encoding='iso-8859-1'?>
<!DOCTYPE svg PUBLIC '-//W3C//DTD SVG 1.1//EN' 'http://www.w3.org/Graphics/SVG/1.1/DTD/svg11.dtd'>
<svg version="1.1" xmlns="http://www.w3.org/2000/svg" viewBox="0 0 297 297" xmlns:xlink="http://www.w3.org/1999/xlink" enable-background="new 0 0 297 297">
  <path d="m195.888,129.933c16.409-13.871 26.232-34.54 26.232-56.313 0-40.594-33.026-73.62-73.62-73.62-40.594,0-73.62,33.026-73.62,73.62 0,21.772 9.823,42.441 26.232,56.313-26.374,16.294-42.872,45.306-42.872,76.807 0,49.77 40.49,90.26 90.26,90.26s90.26-40.49 90.26-90.26c0-31.501-16.498-60.513-42.872-76.807zm-47.388,45.9c16.963,0 30.764,13.864 30.764,30.907 0,17.043-13.801,30.907-30.764,30.907-16.964,0-30.766-13.864-30.766-30.907-1.42109e-14-17.043 13.802-30.907 30.766-30.907zm0-120.114c9.87,7.10543e-15 17.9,8.03 17.9,17.901 0,9.87-8.03,17.9-17.9,17.9-9.87,0-17.9-8.03-17.9-17.9 0-9.871 8.03-17.901 17.9-17.901z"/>
</svg>
