<?xml version='1.0' encoding='iso-8859-1'?>
<!DOCTYPE svg PUBLIC '-//W3C//DTD SVG 1.1//EN' 'http://www.w3.org/Graphics/SVG/1.1/DTD/svg11.dtd'>
<svg version="1.1" xmlns="http://www.w3.org/2000/svg" viewBox="0 0 297 297" xmlns:xlink="http://www.w3.org/1999/xlink" enable-background="new 0 0 297 297">
  <g>
    <path d="m182.846,75.115c0-18.938-15.407-34.346-34.346-34.346-18.938,0-34.345,15.407-34.345,34.346 0,18.938 15.407,34.345 34.345,34.345 18.939,0 34.346-15.407 34.346-34.345zm-48.924,0c0-8.038 6.54-14.579 14.578-14.579 8.038,0 14.578,6.541 14.578,14.579s-6.54,14.578-14.578,14.578c-8.038,0-14.578-6.54-14.578-14.578z"/>
    <path d="m199.814,129.929c14.953-14.063 23.801-33.94 23.801-54.813 2.84217e-14-41.42-33.697-75.116-75.115-75.116s-75.115,33.696-75.115,75.115c0,20.873 8.848,40.75 23.801,54.813-24.77,16.831-40.108,45.084-40.108,75.648-0.001,50.412 41.011,91.424 91.422,91.424s91.423-41.012 91.423-91.423c0-30.564-15.338-58.817-40.109-75.648zm-51.314,147.304c-39.511,0-71.655-32.145-71.655-71.656 0-28.169 16.624-53.835 42.353-65.386 3.362-1.511 5.605-4.766 5.818-8.445 0.214-3.68-1.64-7.173-4.806-9.061-16.69-9.95-27.058-28.178-27.058-47.57 0-30.519 24.828-55.349 55.348-55.349s55.348,24.829 55.348,55.349c0,19.393-10.368,37.62-27.058,47.57-3.166,1.888-5.02,5.381-4.806,9.061 0.213,3.68 2.456,6.935 5.818,8.445 25.729,11.551 42.353,37.217 42.353,65.386-2.84217e-14,39.511-32.144,71.656-71.655,71.656z"/>
    <path d="m148.5,158.484c-25.891,0-46.953,21.127-46.953,47.093 0,25.967 21.063,47.093 46.953,47.093 25.89,0 46.951-21.126 46.951-47.093 0-25.966-21.061-47.093-46.951-47.093zm0,74.418c-14.99,0-27.187-12.258-27.187-27.325 0-15.067 12.196-27.325 27.187-27.325 14.989,0 27.185,12.258 27.185,27.325 0,15.068-12.196,27.325-27.185,27.325z"/>
  </g>
</svg>
