<?xml version="1.0" encoding="iso-8859-1"?>
<!-- Generator: Adobe Illustrator 17.1.0, SVG Export Plug-In . SVG Version: 6.00 Build 0)  -->
<!DOCTYPE svg PUBLIC "-//W3C//DTD SVG 1.1//EN" "http://www.w3.org/Graphics/SVG/1.1/DTD/svg11.dtd">
<svg version="1.1" id="Capa_1" xmlns="http://www.w3.org/2000/svg" xmlns:xlink="http://www.w3.org/1999/xlink" x="0px" y="0px"
	 viewBox="0 0 371.9 371.9" style="enable-background:new 0 0 371.9 371.9;" xml:space="preserve">
<path d="M295.14,81.1c-0.614-30.425-10.609-51.565-30.505-64.566C247.372,5.254,222.37,0,185.95,0s-61.422,5.254-78.685,16.534
	C87.37,29.535,77.374,50.675,76.76,81.1c-0.006,0.202-0.031,0.4-0.031,0.604v2.415v2.112v178.873v9.774v12.902
	c0,32.051,9.988,54.158,30.535,67.585c17.262,11.28,42.265,16.534,78.685,16.534s61.423-5.254,78.685-16.534
	c20.548-13.427,30.536-35.534,30.536-67.585v-12.902v-9.774V86.231v-2.112v-2.415C295.171,81.5,295.146,81.302,295.14,81.1z
	 M165.832,16.03h42.196c2.762,0,5,2.238,5,5s-2.238,5-5,5h-42.196c-2.761,0-5-2.238-5-5S163.071,16.03,165.832,16.03z
	 M138.627,316.435c0,3.309-2.692,6-6,6h-23.906c-3.309,0-6-2.691-6-6v-14.803c0-3.309,2.691-6,6-6h23.906c3.308,0,6,2.691,6,6
	V316.435z M138.627,270.552c0,3.309-2.692,6-6,6h-23.906c-3.309,0-6-2.691-6-6v-14.804c0-3.309,2.691-6,6-6h23.906
	c3.308,0,6,2.691,6,6V270.552z M138.627,224.669c0,3.309-2.692,6-6,6h-23.906c-3.309,0-6-2.691-6-6v-14.804c0-3.309,2.691-6,6-6
	h23.906c3.308,0,6,2.691,6,6V224.669z M208.028,360.572h-42.196c-2.761,0-5-2.238-5-5c0-2.762,2.239-5,5-5h42.196
	c2.762,0,5,2.238,5,5C213.028,358.334,210.79,360.572,208.028,360.572z M173.997,249.748h23.906c3.309,0,6,2.691,6,6v14.804
	c0,3.309-2.691,6-6,6h-23.906c-3.309,0-6-2.691-6-6v-14.804C167.997,252.439,170.688,249.748,173.997,249.748z M167.997,224.669
	v-14.804c0-3.309,2.691-6,6-6h23.906c3.309,0,6,2.691,6,6v14.804c0,3.309-2.691,6-6,6h-23.906
	C170.688,230.669,167.997,227.977,167.997,224.669z M173.997,295.632h23.906c3.309,0,6,2.691,6,6v14.803c0,3.309-2.691,6-6,6
	h-23.906c-3.309,0-6-2.691-6-6v-14.803C167.997,298.323,170.688,295.632,173.997,295.632z M269.178,316.435c0,3.309-2.691,6-6,6
	h-23.906c-3.309,0-6-2.691-6-6v-14.803c0-3.309,2.691-6,6-6h23.906c3.309,0,6,2.691,6,6V316.435z M269.178,270.552
	c0,3.309-2.691,6-6,6h-23.906c-3.309,0-6-2.691-6-6v-14.804c0-3.309,2.691-6,6-6h23.906c3.309,0,6,2.691,6,6V270.552z
	 M269.178,224.669c0,3.309-2.691,6-6,6h-23.906c-3.309,0-6-2.691-6-6v-14.804c0-3.309,2.691-6,6-6h23.906c3.309,0,6,2.691,6,6
	V224.669z M272.45,163.001c0,2.75-2.25,5-5,5h-163c-2.75,0-5-2.25-5-5V65.535c0-2.75,2.25-5,5-5h163c2.75,0,5,2.25,5,5V163.001z"/>
<g>
</g>
<g>
</g>
<g>
</g>
<g>
</g>
<g>
</g>
<g>
</g>
<g>
</g>
<g>
</g>
<g>
</g>
<g>
</g>
<g>
</g>
<g>
</g>
<g>
</g>
<g>
</g>
<g>
</g>
</svg>
