<?xml version="1.0" encoding="iso-8859-1"?>
<!-- Generator: Adobe Illustrator 18.1.1, SVG Export Plug-In . SVG Version: 6.00 Build 0)  -->
<svg version="1.1" id="Capa_1" xmlns="http://www.w3.org/2000/svg" xmlns:xlink="http://www.w3.org/1999/xlink" x="0px" y="0px"
	 viewBox="0 0 283.683 283.683" style="enable-background:new 0 0 283.683 283.683;" xml:space="preserve">
<g>
	<g>
		<path style="fill:#010002;" d="M47.577,24.22c-11.767,0-21.338,9.571-21.338,21.343s9.571,21.355,21.338,21.355
			c11.773,0,21.349-9.577,21.349-21.355C68.926,33.796,59.349,24.22,47.577,24.22z M47.577,54.985c-5.185,0-9.404-4.225-9.404-9.422
			c0-5.191,4.219-9.41,9.404-9.41c5.191,0,9.416,4.225,9.416,9.41C56.993,50.76,52.768,54.985,47.577,54.985z"/>
		<path style="fill:#010002;" d="M47.577,0.352c-24.93,0-45.205,20.281-45.205,45.211c0,24.936,20.275,45.223,45.205,45.223
			s45.217-20.287,45.217-45.223C92.794,20.633,72.506,0.352,47.577,0.352z M47.577,78.852c-18.348,0-33.271-14.929-33.271-33.289
			c0-18.348,14.923-33.277,33.271-33.277c18.354,0,33.283,14.929,33.283,33.277C80.86,63.917,65.931,78.852,47.577,78.852z"/>
		<path style="fill:#010002;" d="M143.047,0c-24.93,0-45.205,20.281-45.205,45.211c0,24.936,20.275,45.223,45.205,45.223
			c24.936,0,45.217-20.287,45.217-45.223C188.264,20.281,167.982,0,143.047,0z M143.047,78.5c-18.348,0-33.271-14.935-33.271-33.289
			c0-18.348,14.923-33.277,33.271-33.277c18.354,0,33.283,14.929,33.283,33.277C176.33,63.565,161.401,78.5,143.047,78.5z"/>
		<path style="fill:#010002;" d="M143.047,23.867c-11.767,0-21.338,9.571-21.338,21.344c0,11.779,9.571,21.355,21.338,21.355
			c11.773,0,21.349-9.577,21.349-21.355C164.396,33.438,154.819,23.867,143.047,23.867z M143.047,54.633
			c-5.185,0-9.404-4.225-9.404-9.422c0-5.191,4.219-9.41,9.404-9.41c5.191,0,9.416,4.225,9.416,9.41
			C152.462,50.408,148.238,54.633,143.047,54.633z"/>
		<path style="fill:#010002;" d="M236.912,90.434c24.936,0,45.217-20.287,45.217-45.223C282.129,20.281,261.847,0,236.912,0
			c-24.93,0-45.211,20.281-45.211,45.211C191.695,70.147,211.982,90.434,236.912,90.434z M236.912,11.934
			c18.354,0,33.283,14.929,33.283,33.277c0,18.354-14.929,33.289-33.283,33.289c-18.348,0-33.277-14.935-33.277-33.289
			C203.628,26.863,218.557,11.934,236.912,11.934z"/>
		<path style="fill:#010002;" d="M236.912,66.566c11.773,0,21.349-9.577,21.349-21.355c0-11.773-9.577-21.343-21.349-21.343
			s-21.343,9.571-21.343,21.343C215.562,56.99,225.139,66.566,236.912,66.566z M236.912,35.801c5.191,0,9.416,4.225,9.416,9.41
			c0,5.197-4.225,9.422-9.416,9.422s-9.41-4.225-9.41-9.422C227.496,40.02,231.714,35.801,236.912,35.801z"/>
		<path style="fill:#010002;" d="M46.771,162.925c11.773,0,21.349-9.571,21.349-21.343c0-5.692-2.22-11.051-6.259-15.084
			c-4.04-4.04-9.398-6.259-15.09-6.259c-11.773,0-21.349,9.577-21.349,21.349C25.422,153.36,34.999,162.925,46.771,162.925z
			 M46.771,132.166c2.542,0,4.845,0.955,6.653,2.769c1.808,1.808,2.763,4.105,2.763,6.647c0,5.191-4.225,9.41-9.416,9.41
			s-9.416-4.219-9.416-9.41C37.356,136.391,41.58,132.166,46.771,132.166z"/>
		<path style="fill:#010002;" d="M46.771,186.793c24.936,0,45.217-20.281,45.217-45.205c0-12.071-4.702-23.426-13.252-31.97
			c-8.551-8.545-19.9-13.246-31.965-13.246c-24.936,0-45.217,20.281-45.217,45.217C1.554,166.506,21.836,186.793,46.771,186.793z
			 M46.771,108.299c8.879,0,17.232,3.467,23.527,9.756c6.295,6.295,9.762,14.649,9.756,23.527c0,18.348-14.929,33.277-33.283,33.277
			s-33.283-14.929-33.283-33.277C13.488,123.228,28.417,108.299,46.771,108.299z"/>
		<path style="fill:#010002;" d="M142.241,186.447c24.93,0,45.217-20.287,45.217-45.223c0-24.93-20.281-45.211-45.217-45.211
			s-45.217,20.281-45.217,45.211C97.024,166.159,117.306,186.447,142.241,186.447z M142.241,107.947
			c18.354,0,33.283,14.923,33.283,33.277s-14.929,33.289-33.283,33.289s-33.283-14.935-33.283-33.289
			C108.958,122.876,123.887,107.947,142.241,107.947z"/>
		<path style="fill:#010002;" d="M142.241,162.579c11.773,0,21.349-9.577,21.349-21.355c0-11.767-9.571-21.343-21.349-21.343
			c-11.779,0-21.349,9.571-21.349,21.343C120.892,153.002,130.469,162.579,142.241,162.579z M142.241,131.814
			c5.191,0,9.416,4.225,9.416,9.41c0,5.197-4.225,9.422-9.416,9.422c-5.191,0-9.416-4.225-9.416-9.422
			C132.826,136.039,137.05,131.814,142.241,131.814z"/>
		<path style="fill:#010002;" d="M236.912,119.88c-11.773,0-21.343,9.571-21.343,21.343c0,11.779,9.571,21.355,21.343,21.355
			s21.349-9.577,21.349-21.355C258.261,129.457,248.678,119.88,236.912,119.88z M236.912,150.646c-5.191,0-9.41-4.225-9.41-9.422
			c0-5.185,4.219-9.41,9.41-9.41s9.416,4.225,9.416,9.41C246.327,146.421,242.103,150.646,236.912,150.646z"/>
		<path style="fill:#010002;" d="M236.912,96.013c-24.93,0-45.211,20.281-45.211,45.211c0,24.936,20.281,45.223,45.211,45.223
			c24.936,0,45.217-20.287,45.217-45.223C282.129,116.294,261.841,96.013,236.912,96.013z M236.912,174.513
			c-18.348,0-33.277-14.935-33.277-33.289c0-18.348,14.929-33.277,33.277-33.277c18.354,0,33.283,14.923,33.283,33.277
			S255.266,174.513,236.912,174.513z"/>
		<path style="fill:#010002;" d="M47.577,193.249c-24.93,0-45.205,20.281-45.205,45.211c0,24.936,20.275,45.223,45.205,45.223
			s45.217-20.287,45.217-45.223C92.794,213.53,72.506,193.249,47.577,193.249z M47.577,271.749
			c-18.348,0-33.271-14.935-33.271-33.289c0-18.348,14.923-33.277,33.271-33.277c18.354,0,33.283,14.929,33.283,33.277
			C80.86,256.814,65.931,271.749,47.577,271.749z"/>
		<path style="fill:#010002;" d="M47.577,217.116c-11.767,0-21.338,9.571-21.338,21.344c0,11.779,9.571,21.355,21.338,21.355
			c11.773,0,21.349-9.577,21.349-21.355C68.926,226.687,59.349,217.116,47.577,217.116z M47.577,247.882
			c-5.185,0-9.404-4.225-9.404-9.422c0-5.191,4.219-9.41,9.404-9.41c5.191,0,9.416,4.219,9.416,9.41
			C56.993,243.657,52.768,247.882,47.577,247.882z"/>
		<path style="fill:#010002;" d="M143.047,216.758c-11.767,0-21.338,9.571-21.338,21.344c0,11.773,9.571,21.349,21.338,21.349
			c11.773,0,21.349-9.577,21.349-21.349C164.396,226.329,154.819,216.758,143.047,216.758z M143.047,247.518
			c-5.185,0-9.404-4.225-9.404-9.416s4.219-9.41,9.404-9.41c5.191,0,9.416,4.219,9.416,9.41S148.238,247.518,143.047,247.518z"/>
		<path style="fill:#010002;" d="M143.047,192.891c-24.93,0-45.205,20.281-45.205,45.211c0,24.936,20.275,45.217,45.205,45.217
			c24.936,0,45.217-20.281,45.217-45.217C188.264,213.172,167.982,192.891,143.047,192.891z M143.047,271.385
			c-18.348,0-33.271-14.929-33.271-33.283c0-18.348,14.923-33.277,33.271-33.277c18.354,0,33.283,14.929,33.283,33.277
			C176.33,256.456,161.401,271.385,143.047,271.385z"/>
		<path style="fill:#010002;" d="M236.912,192.891c-24.93,0-45.211,20.281-45.211,45.211c0,24.936,20.281,45.217,45.211,45.217
			c24.936,0,45.217-20.281,45.217-45.217C282.129,213.172,261.841,192.891,236.912,192.891z M236.912,271.385
			c-18.348,0-33.277-14.929-33.277-33.283c0-18.348,14.929-33.277,33.277-33.277c18.354,0,33.283,14.929,33.283,33.277
			C270.195,256.456,255.266,271.385,236.912,271.385z"/>
		<path style="fill:#010002;" d="M236.912,216.758c-11.773,0-21.343,9.571-21.343,21.344c0,11.773,9.571,21.349,21.343,21.349
			s21.349-9.577,21.349-21.349C258.261,226.329,248.678,216.758,236.912,216.758z M236.912,247.518c-5.191,0-9.41-4.225-9.41-9.416
			s4.219-9.41,9.41-9.41s9.416,4.219,9.416,9.41S242.103,247.518,236.912,247.518z"/>
	</g>
</g>
<g>
</g>
<g>
</g>
<g>
</g>
<g>
</g>
<g>
</g>
<g>
</g>
<g>
</g>
<g>
</g>
<g>
</g>
<g>
</g>
<g>
</g>
<g>
</g>
<g>
</g>
<g>
</g>
<g>
</g>
</svg>
