<?xml version="1.0" encoding="iso-8859-1"?>
<!-- Generator: Adobe Illustrator 16.0.0, SVG Export Plug-In . SVG Version: 6.00 Build 0)  -->
<!DOCTYPE svg PUBLIC "-//W3C//DTD SVG 1.1//EN" "http://www.w3.org/Graphics/SVG/1.1/DTD/svg11.dtd">
<svg version="1.1" id="Capa_1" xmlns="http://www.w3.org/2000/svg" xmlns:xlink="http://www.w3.org/1999/xlink" x="0px" y="0px"
	 width="568.757px" height="568.756px" viewBox="0 0 568.757 568.756" style="enable-background:new 0 0 568.757 568.756;"
	 xml:space="preserve">
<g>
	<circle cx="157.69" cy="310.998" r="33.469"/>
	<circle cx="284.394" cy="310.998" r="33.469"/>
	<circle cx="411.097" cy="310.998" r="33.469"/>
	<circle cx="157.69" cy="405.81" r="33.469"/>
	<circle cx="284.394" cy="405.81" r="33.469"/>
	<circle cx="411.097" cy="405.81" r="33.469"/>
	<circle cx="157.69" cy="500.623" r="33.469"/>
	<circle cx="284.394" cy="500.623" r="33.469"/>
	<circle cx="411.097" cy="500.623" r="33.469"/>
	<path d="M513.578,79.729C469.256,51.548,348.424,34.326,261.979,34.67c-0.431,0.009-0.803,0.009-1.234,0.009
		c-0.382,0.019-0.803,0.019-1.205,0.019c-50.71,0.65-97.662,7.708-136.725,19.221L84.977,67.575
		c-11.705,5.135-22.29,10.72-31.403,16.753c-32.245,18.265-53.923,53.024-53.569,92.708c0.134,17.595,4.609,34.138,12.374,48.654
		c2.974,7.267,10.155,12.383,18.542,12.316l149.997-1.291c7.87-0.067,14.506-4.695,17.691-11.293l0.095-0.009
		c7.87-14.937,12.307-32.044,12.145-50.194c-0.096-12.192-2.247-23.906-6.158-34.779c18.284-1.979,37.332-3.136,56.916-3.423
		c19.631-0.057,83.509-0.229,101.831,1.425c-3.729,10.939-5.718,22.692-5.612,34.884c0.162,18.159,4.876,35.171,13.053,49.964
		l0.038,0.019c3.299,6.541,10.117,11.054,17.93,10.987l149.997-1.3c8.405-0.077,15.511-5.307,18.36-12.642
		c7.487-14.631,11.686-31.26,11.552-48.836C568.419,131.834,546.138,97.458,513.578,79.729z"/>
</g>
<g>
</g>
<g>
</g>
<g>
</g>
<g>
</g>
<g>
</g>
<g>
</g>
<g>
</g>
<g>
</g>
<g>
</g>
<g>
</g>
<g>
</g>
<g>
</g>
<g>
</g>
<g>
</g>
<g>
</g>
</svg>
