<?xml version="1.0" encoding="iso-8859-1"?>
<!-- Generator: Adobe Illustrator 19.1.0, SVG Export Plug-In . SVG Version: 6.00 Build 0)  -->
<svg version="1.1" id="Capa_1" xmlns="http://www.w3.org/2000/svg" xmlns:xlink="http://www.w3.org/1999/xlink" x="0px" y="0px"
	 viewBox="0 0 422.626 422.626" style="enable-background:new 0 0 422.626 422.626;" xml:space="preserve">
<g>
	<g>
		<path d="M184.898,239.976c-28.846,0-48.994,6.561-60.803,12.044l11.692-107.694h129.191v-13.828h-135.4l-6.873,6.167
			l-13.828,127.338l11.146,6.188c0.207-0.159,21.565-16.38,64.868-16.38c21.897,0,41.665,8.076,55.652,22.741
			c14.465,15.162,21.524,35.677,20.411,59.323c-2.227,47.368-44.417,72.923-82.977,72.923c-41.865,0-72.64-23.64-72.951-23.875
			l-8.532,10.876c1.397,1.093,34.688,26.827,81.483,26.827c52.872,0,94.488-37.018,96.798-86.108
			c1.279-27.125-7.329-51.808-24.22-69.522C233.926,249.573,210.612,239.976,184.898,239.976z"/>
		<path d="M322.669,37.053c-3.298-1.915-7.537-0.781-9.445,2.531l-41.506,71.879c-1.915,3.305-0.781,7.537,2.531,9.445
			c1.085,0.629,2.275,0.926,3.45,0.926c2.393,0,4.716-1.238,5.995-3.457L325.2,46.498C327.115,43.193,325.981,38.961,322.669,37.053
			z"/>
		<path d="M184.386,96.805c3.824,0,6.914-3.091,6.914-6.914V6.914c0-3.823-3.09-6.914-6.914-6.914c-3.823,0-6.914,3.09-6.914,6.914
			v82.977C177.472,93.714,180.562,96.805,184.386,96.805z"/>
	</g>
</g>
<g>
</g>
<g>
</g>
<g>
</g>
<g>
</g>
<g>
</g>
<g>
</g>
<g>
</g>
<g>
</g>
<g>
</g>
<g>
</g>
<g>
</g>
<g>
</g>
<g>
</g>
<g>
</g>
<g>
</g>
</svg>
