<?xml version="1.0" encoding="iso-8859-1"?>
<!-- Generator: Adobe Illustrator 18.1.1, SVG Export Plug-In . SVG Version: 6.00 Build 0)  -->
<svg version="1.1" id="Capa_1" xmlns="http://www.w3.org/2000/svg" xmlns:xlink="http://www.w3.org/1999/xlink" x="0px" y="0px"
	 viewBox="0 0 18.907 18.907" style="enable-background:new 0 0 18.907 18.907;" xml:space="preserve">
<g>
	<path style="fill:#030104;" d="M17.751,0.001H1.158C0.518,0.001,0,0.519,0,1.158V17.75c0,0.64,0.519,1.156,1.158,1.156h16.593
		c0.639,0,1.156-0.517,1.156-1.156V1.158C18.907,0.518,18.39,0.001,17.751,0.001z M8.607,15.237c-1.456,0-2.673-0.333-3.336-0.683
		l0.497-2.101c0.535,0.257,1.622,0.59,2.709,0.59c1.161,0,2.396-0.553,2.396-1.824c0-1.236-0.977-1.991-3.373-1.991
		c-0.664,0-1.125,0.036-1.622,0.11L6.67,3.054h6.598v2.304H8.624L8.366,7.201C8.624,7.164,8.845,7.164,9.14,7.164
		c1.142,0,2.304,0.257,3.153,0.866c0.901,0.607,1.455,1.603,1.455,3.003C13.748,13.263,11.832,15.237,8.607,15.237z"/>
</g>
<g>
</g>
<g>
</g>
<g>
</g>
<g>
</g>
<g>
</g>
<g>
</g>
<g>
</g>
<g>
</g>
<g>
</g>
<g>
</g>
<g>
</g>
<g>
</g>
<g>
</g>
<g>
</g>
<g>
</g>
</svg>
