<?xml version="1.0" encoding="iso-8859-1"?>
<!-- Generator: Adobe Illustrator 16.0.0, SVG Export Plug-In . SVG Version: 6.00 Build 0)  -->
<!DOCTYPE svg PUBLIC "-//W3C//DTD SVG 1.1//EN" "http://www.w3.org/Graphics/SVG/1.1/DTD/svg11.dtd">
<svg version="1.1" id="Capa_1" xmlns="http://www.w3.org/2000/svg" xmlns:xlink="http://www.w3.org/1999/xlink" x="0px" y="0px"
	 width="374.454px" height="374.454px" viewBox="0 0 374.454 374.454" style="enable-background:new 0 0 374.454 374.454;"
	 xml:space="preserve">
<g>
	<path d="M122.215,17.02c0-4.284-3.672-7.956-7.956-7.956c-11.016,0-25.092-0.612-34.884,3.672c-2.448,1.224-3.06,3.06-3.672,4.896
		c-4.896,4.896-3.672,14.688-3.672,20.808c0,12.24,1.224,24.48,1.224,36.72c0,4.284,3.672,7.344,7.344,7.344
		c11.016,1.224,22.032,0,33.048,0c4.284,0,7.344-3.672,7.956-7.956C124.051,54.964,122.215,35.992,122.215,17.02z"/>
	<path d="M299.083,43.948c-1.225-11.016-5.509-26.316-14.688-33.66c-10.404-7.956-25.704-3.672-33.66,5.508
		c-2.447,2.448-2.447,6.12-0.611,8.568c-1.225,17.136-1.225,34.884,0,52.02c0,4.284,3.06,7.344,7.344,7.344
		C281.335,83.116,302.143,70.876,299.083,43.948z"/>
	<path d="M370.687,292.421c-2.448-24.48-3.06-48.96-3.06-73.44c0-51.409,2.447-102.816-1.225-154.225c0-3.672-3.06-6.12-6.119-6.732
		c-0.612-1.836-2.448-3.672-4.896-4.284c-12.852-3.06-26.316-1.836-39.168-0.612c-4.284,0.612-7.956,3.06-7.956,7.956
		c0,8.568,3.06,36.72-9.792,36.72c-10.404,0-21.42-0.612-31.824-1.224s-20.808,0-31.212,0.612
		c-7.956,0.612-5.508-40.392-5.508-44.676c0-3.672-3.672-7.956-7.956-7.956c-25.092,2.448-49.572,5.508-74.052,9.792
		c-3.06,0.612-5.508,4.284-5.508,7.344c0,11.016,0,22.032,0,33.048c-17.136,0.612-34.884,1.224-52.02,1.224
		c-7.956,0-30.6,3.672-30.6-8.568c0-11.016,0.612-22.032-0.612-33.048c-0.612-4.896-4.284-7.344-8.568-6.732
		c-12.852,2.448-25.704,3.672-37.944,6.12l0,0c-3.06-3.06-10.404-1.224-9.792,4.284c2.448,50.796,2.448,101.592,1.224,152.388
		c-1.224,37.944-11.016,89.964,4.896,126.072c7.956,18.36,23.256,27.54,42.84,29.988c43.452,4.896,88.74-1.225,131.58-2.448
		c48.348-1.224,96.696,4.896,145.656,3.672c22.645-0.611,41.004-11.628,45.288-34.271
		C374.971,319.349,372.522,305.272,370.687,292.421z M167.503,131.464c5.508,0,11.016,0,17.136,0c-1.224,0-2.448,0-4.284,0.612
		c-3.672,0-6.732,0.612-10.404,0.612c-1.224,0-1.836,0-3.06,0C166.891,132.688,167.503,132.076,167.503,131.464z M236.659,337.708
		c-1.837,0-3.061,1.225-3.673,1.837c-7.956-1.225-15.911-1.837-23.867-2.448c9.18,0,18.972,0,28.151,0.611H236.659z
		 M149.143,320.572c-28.764,0-58.14-3.06-86.904-1.224c-8.568,0.612-17.748,1.224-26.316,1.224
		c1.836-58.14-10.404-115.668-2.448-174.42c12.852,6.12,31.212,2.448,44.676,2.448c28.764,0,56.916-0.612,85.68-1.224
		c54.468-1.224,108.936-0.612,163.404-1.224c1.836,26.316,5.509,52.021,5.509,79.561c-0.612,31.212-1.836,61.812,1.224,93.023
		C272.154,320.572,210.955,320.572,149.143,320.572z"/>
	<path d="M234.822,275.896c-0.611-3.06-3.672-6.12-7.344-5.508c-11.016,1.224-22.644,2.448-33.66,3.06
		c21.42-29.376,41.004-74.052,6.732-97.308c-20.196-14.076-76.5,2.448-77.112,27.541c-1.224,3.06-1.224,6.12-1.224,8.567
		c0,1.225,0,3.061,0,4.284c0,1.225,0.612,1.836,0.612,2.448c0,0,0,0,0,0.612v0.611c-2.448,4.896,0.612,11.628,6.732,11.628
		c5.508,0,11.016,0,16.524,0c3.06,0,6.732-2.447,7.344-5.508c3.672-24.479,33.048-40.392,34.884-5.508
		c1.225,25.704-28.152,50.796-39.78,72.216c-2.448,4.896,0.612,12.24,6.732,11.628c24.48-1.836,49.572-3.06,74.052-4.284
		c4.284,0,7.956-3.672,7.344-7.344C236.659,286.912,236.047,281.404,234.822,275.896z"/>
</g>
<g>
</g>
<g>
</g>
<g>
</g>
<g>
</g>
<g>
</g>
<g>
</g>
<g>
</g>
<g>
</g>
<g>
</g>
<g>
</g>
<g>
</g>
<g>
</g>
<g>
</g>
<g>
</g>
<g>
</g>
</svg>
