<?xml version="1.0" encoding="iso-8859-1"?>
<!-- Generator: Adobe Illustrator 19.0.0, SVG Export Plug-In . SVG Version: 6.00 Build 0)  -->
<svg version="1.1" id="Layer_1" xmlns="http://www.w3.org/2000/svg" xmlns:xlink="http://www.w3.org/1999/xlink" x="0px" y="0px"
	 viewBox="0 0 512 512" style="enable-background:new 0 0 512 512;" xml:space="preserve">
<path style="fill:#666666;" d="M339.379,0l83.379,144.423L339.379,512H172.621L89.242,144.423L172.621,0H339.379z"/>
<path style="fill:#999999;" d="M326.907,496.381H185.093l-79.267-349.447l75.812-131.316h148.722l75.812,131.316L326.907,496.381z
	 M190.849,489.173H321.15l77.368-341.08L326.199,22.827H185.801l-72.32,125.267L190.849,489.173z"/>
<path style="fill:#808080;" d="M311.626,48.057l60.095,104.092l-70.728,311.794h-89.999l-70.728-311.794l60.095-104.092H311.626z"/>
<g>
	<path style="fill:#666666;" d="M289.001,448.925h-66.014l-66.774-294.362l52.818-91.489h93.923l52.818,91.489L289.001,448.925z
		 M229.703,440.515h52.583l64.559-284.6l-48.745-84.43h-84.21l-48.744,84.43L229.703,440.515z"/>
	<polygon style="fill:#666666;" points="322.871,147.091 322.871,177.246 271.078,177.246 271.078,308.959 240.922,308.959 
		240.922,177.246 189.117,177.246 189.117,147.091 240.922,147.091 240.922,92.99 271.078,92.99 271.078,147.091 	"/>
</g>
<g>
</g>
<g>
</g>
<g>
</g>
<g>
</g>
<g>
</g>
<g>
</g>
<g>
</g>
<g>
</g>
<g>
</g>
<g>
</g>
<g>
</g>
<g>
</g>
<g>
</g>
<g>
</g>
<g>
</g>
</svg>
