<?xml version="1.0" encoding="iso-8859-1"?>
<!-- Generator: Adobe Illustrator 19.0.0, SVG Export Plug-In . SVG Version: 6.00 Build 0)  -->
<svg version="1.1" id="Layer_1" xmlns="http://www.w3.org/2000/svg" xmlns:xlink="http://www.w3.org/1999/xlink" x="0px" y="0px"
	 viewBox="0 0 512 512" style="enable-background:new 0 0 512 512;" xml:space="preserve">
<g transform="translate(1 1)">
	<path style="fill:#E2E3E5;" d="M511,255c0,130.844-106.193,237.037-237.037,237.037S36.926,385.844,36.926,255
		S143.119,17.963,273.963,17.963S511,124.156,511,255"/>
	<path style="fill:#CCCCCC;" d="M482.556,255c0,130.844-106.193,237.037-237.037,237.037S8.481,385.844,8.481,255
		S114.674,17.963,245.519,17.963S482.556,124.156,482.556,255"/>
	<path style="fill:#E2E3E5;" d="M454.111,255c0,130.844-92.919,237.037-208.593,237.037S36.926,385.844,36.926,255
		S130.793,17.963,245.519,17.963S454.111,124.156,454.111,255"/>
	<path style="fill:#FFFFFF;" d="M36.926,255c0-130.844,93.867-237.037,208.593-237.037C114.674,17.963,8.481,124.156,8.481,255
		s106.193,237.037,237.037,237.037C130.793,492.037,36.926,385.844,36.926,255"/>
	<g>
		<path style="fill:#B6B6B6;" d="M245.519,501.519C109.933,501.519-1,390.585-1,255S109.933,8.481,245.519,8.481
			S492.037,119.415,492.037,255S381.104,501.519,245.519,501.519z M245.519,27.444c-125.156,0-227.556,102.4-227.556,227.556
			s102.4,227.556,227.556,227.556S473.074,380.156,473.074,255S370.674,27.444,245.519,27.444z"/>
		<path style="fill:#B6B6B6;" d="M245.519,397.222c-5.689,0-9.481-3.793-9.481-9.481v-18.963c0-5.689,3.793-9.481,9.481-9.481
			c5.689,0,9.481,3.793,9.481,9.481v18.963C255,393.43,251.207,397.222,245.519,397.222z"/>
		<path style="fill:#B6B6B6;" d="M245.519,330.852c-5.689,0-9.481-3.793-9.481-9.482v-26.548c0-32.237,15.17-60.681,39.822-76.8
			c17.067-10.43,26.548-28.444,26.548-48.356c0-30.341-26.548-55.941-55.941-55.941c-15.17,0-29.393,5.689-40.77,16.119
			c-11.378,10.43-17.067,24.652-17.067,39.822c0,5.689-3.793,9.481-9.481,9.481s-9.481-3.793-9.481-9.481
			c0-20.859,7.585-39.822,22.756-54.044c14.222-14.222,33.185-21.807,54.044-21.807c40.77,0.948,73.956,34.133,74.904,74.904
			c0,26.548-12.326,50.252-35.081,64.474C266.378,245.519,255,269.222,255,293.874v27.496
			C255,327.059,251.207,330.852,245.519,330.852z"/>
	</g>
</g>
<g>
</g>
<g>
</g>
<g>
</g>
<g>
</g>
<g>
</g>
<g>
</g>
<g>
</g>
<g>
</g>
<g>
</g>
<g>
</g>
<g>
</g>
<g>
</g>
<g>
</g>
<g>
</g>
<g>
</g>
</svg>
