<?xml version="1.0" encoding="iso-8859-1"?>
<!-- Generator: Adobe Illustrator 16.0.0, SVG Export Plug-In . SVG Version: 6.00 Build 0)  -->
<!DOCTYPE svg PUBLIC "-//W3C//DTD SVG 1.1//EN" "http://www.w3.org/Graphics/SVG/1.1/DTD/svg11.dtd">
<svg version="1.1" id="Capa_1" xmlns="http://www.w3.org/2000/svg" xmlns:xlink="http://www.w3.org/1999/xlink" x="0px" y="0px"
	 width="175.023px" height="175.023px" viewBox="0 0 175.023 175.023" style="enable-background:new 0 0 175.023 175.023;"
	 xml:space="preserve">
<g>
	<g>
		<path d="M156.733,6.53h-20.728C134.094,2.676,130.154,0,125.581,0H49.458c-4.588,0-8.525,2.676-10.431,6.53H18.299
			c-2.843,0-5.136,2.311-5.136,5.143c0,2.831,2.293,5.139,5.136,5.139H39.1c1.915,3.833,5.775,6.528,10.357,6.528h33.795
			c0.063,6.021,0.213,14.559,0.417,22.097c-1.678,1.136-3.255,2.944-4.588,5.593l-4.719,9.447l-8.811-5.818
			c-8.649-5.712-15.214-1.915-14.589,8.437l0.627,10.531l-10.537-0.63c-10.336-0.615-14.127,5.943-8.424,14.599l5.818,8.808
			l-9.444,4.726c-9.268,4.64-9.268,12.215,0,16.854l9.444,4.726l-5.818,8.805c-5.712,8.646-1.918,15.211,8.424,14.602l10.537-0.646
			l-0.627,10.546c-0.625,10.34,5.94,14.133,14.589,8.422l8.811-5.815l4.719,9.45c4.646,9.268,12.218,9.268,16.858,0l4.725-9.45
			l8.806,5.815c8.652,5.718,15.217,1.918,14.602-8.422l-0.64-10.546l10.54,0.646c10.34,0.615,14.127-5.955,8.428-14.602
			l-5.815-8.805l9.444-4.732c9.262-4.633,9.262-12.208,0-16.848l-9.444-4.726l5.815-8.808c5.706-8.656,1.912-15.213-8.428-14.599
			l-10.54,0.63l0.64-10.531c0.615-10.352-5.949-14.142-14.602-8.437l-8.806,5.818l-4.725-9.447
			c-1.327-2.649-2.911-4.458-4.585-5.593c0.213-7.532,0.353-16.076,0.42-22.097h33.795c4.579,0,8.524-2.677,10.425-6.528h20.728
			c2.85,0,5.139-2.302,5.139-5.139C161.86,8.835,159.571,6.53,156.733,6.53z M130.075,109.55c0,23.511-19.047,42.545-42.558,42.545
			c-23.507,0-42.557-19.047-42.557-42.545c0-23.501,19.05-42.551,42.557-42.551C111.028,66.999,130.075,86.049,130.075,109.55z"/>
		<path d="M47.619,109.55c0,22,17.902,39.902,39.899,39.902c22.001,0,39.902-17.902,39.902-39.902s-17.901-39.902-39.902-39.902
			C65.521,69.647,47.619,87.55,47.619,109.55z M125.265,109.55c0,20.812-16.934,37.74-37.747,37.74
			c-20.812,0-37.743-16.928-37.743-37.74s16.931-37.744,37.743-37.744C108.331,71.806,125.265,88.737,125.265,109.55z"/>
		<path d="M104.33,83.431l-9.243,40.837c-0.292,1.278-0.438,2.033-0.438,2.277l0.384,1.12l1.065,0.73
			c0.457,0.122,1.297,0.177,2.521,0.177h5.932l-1.663,7.105H70.483l1.62-7.105H76.6c1.739,0,2.944-0.061,3.593-0.177
			c0.648-0.128,1.172-0.316,1.546-0.578l0.901-1.011c0.393-0.737,0.719-1.656,0.962-2.759l6.552-28.984H79.663l1.656-7.1
			c5.645-0.351,12.074-1.854,19.297-4.533H104.33z"/>
	</g>
</g>
<g>
</g>
<g>
</g>
<g>
</g>
<g>
</g>
<g>
</g>
<g>
</g>
<g>
</g>
<g>
</g>
<g>
</g>
<g>
</g>
<g>
</g>
<g>
</g>
<g>
</g>
<g>
</g>
<g>
</g>
</svg>
